<svg xmlns="http://www.w3.org/2000/svg" width="21.476" height="17.443" viewBox="0 0 21.476 17.443"><defs><style>.a{fill:#d83f87;}</style></defs><path class="a" d="M19.269,7.728c.014.191.014.382.014.572A12.438,12.438,0,0,1,6.759,20.823,12.438,12.438,0,0,1,0,18.848a9.105,9.105,0,0,0,1.063.054,8.815,8.815,0,0,0,5.464-1.881,4.409,4.409,0,0,1-4.115-3.053,5.551,5.551,0,0,0,.831.068,4.655,4.655,0,0,0,1.158-.15A4.4,4.4,0,0,1,.872,9.567V9.513a4.433,4.433,0,0,0,1.99.559A4.408,4.408,0,0,1,1.5,4.185a12.511,12.511,0,0,0,9.076,4.606,4.969,4.969,0,0,1-.109-1.008,4.406,4.406,0,0,1,7.618-3.012,8.666,8.666,0,0,0,2.794-1.063,4.39,4.39,0,0,1-1.935,2.426,8.824,8.824,0,0,0,2.535-.681,9.462,9.462,0,0,1-2.208,2.276Z" transform="translate(0 -3.381)"/></svg>