<svg xmlns="http://www.w3.org/2000/svg" width="18.792" height="18.792" viewBox="0 0 18.792 18.792"><defs><style>.a{fill:#d83f87;}</style></defs><path class="a" d="M17.45,2.25H1.338A1.348,1.348,0,0,0,0,3.6V19.687a1.348,1.348,0,0,0,1.338,1.355H17.45a1.352,1.352,0,0,0,1.342-1.355V3.6A1.352,1.352,0,0,0,17.45,2.25ZM5.679,18.357H2.894V9.389H5.684v8.968ZM4.287,8.164A1.615,1.615,0,1,1,5.9,6.549,1.616,1.616,0,0,1,4.287,8.164ZM16.12,18.357H13.335V13.995c0-1.04-.021-2.378-1.447-2.378-1.451,0-1.674,1.133-1.674,2.3v4.438H7.429V9.389H10.1v1.225h.038a2.934,2.934,0,0,1,2.638-1.447c2.819,0,3.343,1.858,3.343,4.274Z" transform="translate(0 -2.25)"/></svg>