<svg xmlns="http://www.w3.org/2000/svg" width="387" height="348" viewBox="0 0 387 348"><defs><style>.a,.b,.f{fill:none;}.a,.c{stroke:#2a1b3d;}.b,.d{stroke:#d83f87;}.c{fill:#fcfcfc;}.d{fill:#fff;}.e{stroke:none;}</style></defs><g transform="translate(-869 -202)"><g transform="translate(-72 42)"><g class="a" transform="translate(967 309)"><path class="e" d="M12,0H282a12,12,0,0,1,12,12V192a0,0,0,0,1,0,0H0a0,0,0,0,1,0,0V12A12,12,0,0,1,12,0Z"/><path class="f" d="M12,.5H282A11.5,11.5,0,0,1,293.5,12V191a.5.5,0,0,1-.5.5H1a.5.5,0,0,1-.5-.5V12A11.5,11.5,0,0,1,12,.5Z"/></g><g class="a" transform="translate(967 316)"><path class="e" d="M12,0H282a12,12,0,0,1,12,12V172a0,0,0,0,1,0,0H0a0,0,0,0,1,0,0V12A12,12,0,0,1,12,0Z"/><path class="f" d="M12,.5H282A11.5,11.5,0,0,1,293.5,12V171a.5.5,0,0,1-.5.5H1a.5.5,0,0,1-.5-.5V12A11.5,11.5,0,0,1,12,.5Z"/></g><g class="a" transform="translate(941 500)"><rect class="e" width="345" height="8" rx="3"/><rect class="f" x="0.5" y="0.5" width="344" height="7" rx="2.5"/></g><g class="a" transform="translate(1089 500)"><path class="e" d="M0,0H49a0,0,0,0,1,0,0V0a5,5,0,0,1-5,5H5A5,5,0,0,1,0,0V0A0,0,0,0,1,0,0Z"/><path class="f" d="M.833.5H48.167A.333.333,0,0,1,48.5.833v0A3.667,3.667,0,0,1,44.833,4.5H4.167A3.667,3.667,0,0,1,.5.833v0A.333.333,0,0,1,.833.5Z"/></g><g class="b" transform="translate(1113 311)"><circle class="e" cx="2" cy="2" r="2"/><circle class="f" cx="2" cy="2" r="1.5"/></g></g><g transform="translate(-3154 -45)"><g class="c" transform="translate(4256 247)"><rect class="e" width="154" height="298" rx="15"/><rect class="f" x="0.5" y="0.5" width="153" height="297" rx="14.5"/></g><g class="a" transform="translate(4256 261)"><rect class="e" width="154" height="255" rx="15"/><rect class="f" x="0.5" y="0.5" width="153" height="254" rx="14.5"/></g><g class="b" transform="translate(4314 252)"><rect class="e" width="25" height="4" rx="2"/><rect class="f" x="0.5" y="0.5" width="24" height="3" rx="1.5"/></g><g class="d" transform="translate(4315 524)"><rect class="e" width="36" height="12" rx="6"/><rect class="f" x="0.5" y="0.5" width="35" height="11" rx="5.5"/></g><g class="b" transform="translate(4347 252)"><circle class="e" cx="2" cy="2" r="2"/><circle class="f" cx="2" cy="2" r="1.5"/></g></g></g></svg>