<svg xmlns="http://www.w3.org/2000/svg" width="62" height="84.331" viewBox="0 0 62 84.331"><defs><style>.a{fill:#44318d;opacity:0.19;}.b,.e,.g{fill:none;}.b,.c,.e{stroke:#2a1b3d;}.b,.e{stroke-linecap:round;}.b{stroke-linejoin:round;}.c{fill:#d83f87;}.d{fill:#fff;}.f,.h{stroke:none;}.h{fill:#2a1b3d;}</style></defs><g transform="translate(-482 -2261)"><circle class="a" cx="31" cy="31" r="31" transform="translate(482 2261)"/><g transform="translate(-3.724)"><g transform="translate(-1337.525 553.481) rotate(-37)"><path class="b" d="M3260.412,2558.457s-9.5,8.964,0,14.452C3269.1,2567.894,3260.412,2558.457,3260.412,2558.457Z" transform="translate(-2846.871 -62)"/><g class="c" transform="translate(409.108 2509.247)"><rect class="f" width="8.864" height="6.648" rx="2"/><rect class="g" x="0.5" y="0.5" width="7.864" height="5.648" rx="1.5"/></g><g class="d" transform="translate(410.819 2513.679)"><path class="f" d="M 2.878063678741455 38.2806396484375 C 1.626353621482849 38.2806396484375 0.6080136895179749 37.26229858398438 0.6080136895179749 36.01058959960938 L 0.6080136895179749 36.00225830078125 L 0.6077336668968201 35.99392700195313 L -0.4999665915966034 2.762679576873779 C -0.4960450232028961 2.252037763595581 -0.08246911317110062 1.694494009017944 0.6360836625099182 1.231677889823914 C 1.326183676719666 0.7871978878974915 2.206213712692261 0.4999979138374329 2.878063678741455 0.4999979138374329 C 3.549913644790649 0.4999979138374329 4.429943561553955 0.7871978878974915 5.120043754577637 1.231677889823914 C 5.838596343994141 1.694494009017944 6.252172470092773 2.252037763595581 6.256093978881836 2.762679576873779 L 5.148393630981445 35.99392700195313 L 5.14811372756958 36.00225830078125 L 5.14811372756958 36.01058959960938 C 5.14811372756958 37.26229858398438 4.129773616790771 38.2806396484375 2.878063678741455 38.2806396484375 Z"/><path class="h" d="M 2.878063678741455 0.9999961853027344 C 1.674238681793213 0.9999961853027344 0.01810789108276367 2.014583587646484 0.0001506805419921875 2.757949829101563 L 1.1074538230896 35.97727966308594 L 1.10801362991333 35.99392700195313 L 1.10801362991333 36.01058959960938 C 1.10801362991333 36.98659896850586 1.902053594589233 37.7806396484375 2.878063678741455 37.7806396484375 C 3.854073524475098 37.7806396484375 4.64811372756958 36.98659896850586 4.64811372756958 36.01058959960938 L 4.64811372756958 35.99392700195313 L 4.648673534393311 35.97727966308594 L 5.755976676940918 2.757949829101563 C 5.738019466400146 2.014583587646484 4.081888675689697 0.9999961853027344 2.878063678741455 0.9999961853027344 M 2.878063678741455 -3.814697265625e-06 C 4.407913684844971 -3.814697265625e-06 6.756123542785645 1.240188598632813 6.756123542785645 2.770046234130859 L 5.64811372756958 36.01058959960938 C 5.64811372756958 37.54043960571289 4.407913684844971 38.7806396484375 2.878063678741455 38.7806396484375 C 1.348213672637939 38.7806396484375 0.1080136299133301 37.54043960571289 0.1080136299133301 36.01058959960938 L -0.9999961853027344 2.770046234130859 C -0.9999961853027344 1.240188598632813 1.348213672637939 -3.814697265625e-06 2.878063678741455 -3.814697265625e-06 Z"/></g><g class="c" transform="translate(408 2513.679)"><rect class="f" width="11.08" height="3.324" rx="1"/><rect class="g" x="0.5" y="0.5" width="10.08" height="2.324" rx="0.5"/></g><path class="e" d="M3259.655,2571.355c0-.128-1.57-2.577-.942-3.645" transform="translate(-2846.615 -62.109)"/></g><g transform="matrix(-0.799, -0.602, 0.602, -0.799, 509.573, 2346.426)"><path class="b" d="M4.224,14.452S-5.28,5.488,4.224,0C12.911,5.015,4.224,14.452,4.224,14.452Z" transform="translate(1.316 41.55)"/><g class="c" transform="translate(1.108 36.565)"><rect class="f" width="8.864" height="6.648" rx="2"/><rect class="g" x="0.5" y="0.5" width="7.864" height="5.648" rx="1.5"/></g><g class="d" transform="translate(1.819 0)"><path class="f" d="M 3.878046035766602 38.28059005737305 C 3.206196069717407 38.28059005737305 2.326175928115845 37.99338912963867 1.636076092720032 37.54889678955078 C 0.9175133109092712 37.08609390258789 0.5039471983909607 36.52854919433594 0.500025749206543 36.01790618896484 L 1.607645988464355 2.786718368530273 L 1.60792601108551 2.778388261795044 L 1.60792601108551 2.770058393478394 C 1.60792601108551 2.163708448410034 1.844045996665955 1.593658328056335 2.272796154022217 1.164908409118652 C 2.70154595375061 0.7361483573913574 3.271605968475342 0.5000283718109131 3.87795615196228 0.5000283718109131 C 5.129655838012695 0.5000283718109131 6.147995948791504 1.518368363380432 6.147995948791504 2.770078420639038 L 6.147995948791504 2.778408288955688 L 6.148275852203369 2.786738395690918 L 7.25606632232666 36.01792907714844 C 7.252144813537598 36.52856826782227 6.838578701019287 37.08611297607422 6.120026111602783 37.54891967773438 C 5.429925918579102 37.9933967590332 4.549896240234375 38.28059005737305 3.878046035766602 38.28059005737305 Z"/><path class="h" d="M 3.878066062927246 37.78059005737305 C 5.081881046295166 37.78059005737305 6.737991809844971 36.76602935791016 6.755948543548584 36.02266311645508 L 5.648556232452393 2.803398370742798 L 5.647995948791504 2.786738395690918 L 5.647995948791504 2.770078420639038 C 5.647995948791504 1.794068336486816 4.85395622253418 1.000028371810913 3.87795615196228 1.000028371810913 C 3.405156135559082 1.000028371810913 2.960665941238403 1.184138417243958 2.626346111297607 1.518458366394043 C 2.292036056518555 1.852768421173096 2.1079261302948 2.297258377075195 2.1079261302948 2.770048379898071 L 2.1079261302948 2.786718368530273 L 2.10736608505249 2.803368330001831 L 1.00014317035675 36.02263259887695 C 1.018100261688232 36.7660026550293 2.674231052398682 37.78059005737305 3.878046035766602 37.78059005737305 L 3.878066062927246 37.78059005737305 M 3.878046035766602 38.78059005737305 C 2.348206043243408 38.78059005737305 -3.964233201259049e-06 37.54039001464844 -3.964233201259049e-06 36.01054000854492 L 1.10792601108551 2.770058393478394 C 1.107915997505188 1.240208387374878 2.348106145858765 2.838012733263895e-05 3.87795615196228 2.838012733263895e-05 C 5.407805919647217 2.838012733263895e-05 6.647995948791504 1.240228414535522 6.647995948791504 2.770078420639038 L 7.756095886230469 36.01055908203125 C 7.756095886230469 37.54040908813477 5.407896041870117 38.78059768676758 3.878046035766602 38.78059005737305 Z"/></g><g class="c" transform="translate(0 35.456)"><rect class="f" width="11.08" height="3.324" rx="1"/><rect class="g" x="0.5" y="0.5" width="10.08" height="2.324" rx="0.5"/></g><path class="e" d="M1.091,0c0,.128-1.57,2.577-.942,3.645" transform="translate(3.95 43.212)"/></g></g></g></svg>