<svg xmlns="http://www.w3.org/2000/svg" width="70" height="85" viewBox="0 0 70 85"><defs><style>.a{fill:#44318d;opacity:0.19;}.b,.d{fill:#fff;}.c{fill:#d83f87;}.c,.d,.f{stroke:#2a1b3d;}.e,.f,.i{fill:none;}.e{stroke:#d83f87;}.e,.f{stroke-linecap:round;}.g,.h{stroke:none;}.h{fill:#2a1b3d;}</style></defs><g transform="translate(-933 -2261)"><circle class="a" cx="31" cy="31" r="31" transform="translate(937 2261)"/><g transform="translate(-10 -14)"><g transform="translate(238.008 -240.514)"><g class="b" transform="translate(704.992 2543.826)"><path class="g" d="M 16.34233856201172 46.66330718994141 C 15.12280178070068 46.19738388061523 13.9321174621582 45.63043212890625 12.79394721984863 44.97331237792969 C 11.68705081939697 44.3343505859375 10.62803077697754 43.6087646484375 9.637676239013672 42.81121063232422 C 11.40877437591553 41.6187744140625 12.67559432983398 39.84626007080078 13.23455715179443 37.75994110107422 C 13.84759712219238 35.47178268432617 13.53458786010742 33.08468246459961 12.35318756103516 31.03836250305176 C 10.77513790130615 28.30518341064453 7.8323974609375 26.60731315612793 4.673337459564209 26.60731315612793 C 3.334293842315674 26.60731315612793 2.008203506469727 26.91551971435547 0.8025750517845154 27.50300025939941 C 0.400957465171814 24.96257972717285 0.3990239202976227 22.40205955505371 0.7968109250068665 19.87251663208008 C 2.003762722015381 20.4615306854248 3.330597639083862 20.77055168151855 4.669437408447266 20.77055168151855 C 7.8324875831604 20.77055168151855 10.77512741088867 19.07279205322266 12.35316753387451 16.33982276916504 C 13.53458786010742 14.29383277893066 13.84759712219238 11.90697288513184 13.23455715179443 9.618932723999023 C 12.67514514923096 7.531075954437256 11.40679454803467 5.757427215576172 9.634451866149902 4.56541109085083 C 11.65410709381104 2.933733701705933 13.90489101409912 1.642773985862732 16.34218215942383 0.7181068062782288 C 16.39572906494141 2.985764265060425 17.31854438781738 5.160448551177979 18.93427658081055 6.776262760162354 C 20.60785675048828 8.449602127075195 22.83242797851563 9.371122360229492 25.19823837280273 9.371122360229492 C 27.56400680541992 9.371122360229492 29.78882789611816 8.449612617492676 31.46284675598145 6.776352405548096 C 33.05588150024414 5.183201789855957 33.97767639160156 3.040009737014771 34.05250930786133 0.8040404319763184 C 35.19130325317383 1.252298355102539 36.30468368530273 1.789280414581299 37.3708381652832 2.404842615127563 C 38.47811889648438 3.04403018951416 39.53726959228516 3.769709587097168 40.5274658203125 4.567198753356934 C 38.75345993041992 5.760479927062988 37.48465347290039 7.533087730407715 36.92597579956055 9.617962837219238 C 36.31355667114258 11.90349292755127 36.62782669067383 14.29069232940674 37.81088638305664 16.33980178833008 C 39.38893890380859 19.07279205322266 42.33111572265625 20.77055168151855 45.4892578125 20.77055168151855 C 46.8300666809082 20.77055168151855 48.15689086914063 20.46245574951172 49.36246871948242 19.87503814697266 C 49.76400756835938 22.414794921875 49.76584625244141 24.97544097900391 49.36798477172852 27.50584030151367 C 48.16067123413086 26.91650199890137 46.83242797851563 26.60731315612793 45.49120712280273 26.60731315612793 C 42.33211898803711 26.60731315612793 39.38919830322266 28.30517196655273 37.81090927124023 31.0383129119873 C 35.47239685058594 35.08904266357422 36.70690155029297 40.23849868774414 40.5297966003418 42.81289291381836 C 38.57587814331055 44.3913688659668 36.40224075317383 45.65253829956055 34.05238723754883 46.5711784362793 C 33.97676086425781 44.33634948730469 33.05497360229492 42.19416427612305 31.46295738220215 40.60190200805664 C 29.78961753845215 38.92867279052734 27.5649471282959 38.0072021484375 25.19872665405273 38.0072021484375 C 22.83234786987305 38.0072021484375 20.60759735107422 38.92867279052734 18.93429756164551 40.60187149047852 C 17.31766319274902 42.21865081787109 16.39491844177246 44.39432525634766 16.34233856201172 46.66330718994141 Z"/><path class="h" d="M 15.88582992553711 45.9432373046875 C 16.09826469421387 43.8055305480957 17.04197311401367 41.7872314453125 18.58075714111328 40.2483024597168 C 20.34848785400391 38.48068237304688 22.69879722595215 37.5072021484375 25.19872665405273 37.5072021484375 C 27.6984977722168 37.5072021484375 30.04872703552246 38.48068237304688 31.81653785705566 40.24838256835938 C 33.32991790771484 41.76198959350586 34.27000427246094 43.74617385864258 34.50137329101563 45.84857559204102 C 36.36106109619141 45.06085586547852 38.10207366943359 44.04952621459961 39.70119094848633 42.82807159423828 C 36.09759140014648 40.00108337402344 35.02298355102539 34.86745452880859 37.3779182434082 30.78828239440918 C 39.04524612426758 27.90095329284668 42.15407562255859 26.10731315612793 45.49120712280273 26.10731315612793 C 46.68210983276367 26.10731315612793 47.8632698059082 26.33795738220215 48.96682739257813 26.78096008300781 C 49.23266220092773 24.72825622558594 49.23100662231445 22.65823173522949 48.96187210083008 20.59914207458496 C 47.85970687866211 21.04069709777832 46.67965698242188 21.27055168151855 45.4892578125 21.27055168151855 C 42.15306854248047 21.27055168151855 39.04496765136719 19.47701263427734 37.37786865234375 16.58980178833008 C 36.12803649902344 14.42502212524414 35.79602813720703 11.90309238433838 36.44301605224609 9.488542556762695 C 36.97375106811523 7.507946968078613 38.1109504699707 5.794231414794922 39.69754791259766 4.552284240722656 C 38.87838363647461 3.928564786911011 38.01570892333984 3.354425668716431 37.1208381652832 2.837852716445923 C 36.27425765991211 2.349067211151123 35.39739608764648 1.910887002944946 34.50153732299805 1.52855920791626 C 34.27047348022461 3.631454467773438 33.33036804199219 5.61583137512207 31.81632804870605 7.129992485046387 C 30.04786682128906 8.897632598876953 27.6975269317627 9.871122360229492 25.19823837280273 9.871122360229492 C 22.69888687133789 9.871122360229492 20.34876823425293 8.897603034973145 18.58070755004883 7.129812717437744 C 17.04234504699707 5.591361045837402 16.09855842590332 3.573419809341431 15.88575267791748 1.436249375343323 C 13.94308662414551 2.23614764213562 12.12750816345215 3.27872633934021 10.46350288391113 4.549861431121826 C 12.0489559173584 5.791096687316895 13.1860933303833 7.506124496459961 13.7175178527832 9.489532470703125 C 14.36513710021973 11.90658283233643 14.03436756134033 14.42819213867188 12.78616714477539 16.58984184265137 C 11.11909770965576 19.47701263427734 8.010537147521973 21.27055168151855 4.669437408447266 21.27055168151855 C 3.480611562728882 21.27055168151855 2.300952672958374 21.04009819030762 1.197970032691956 20.59734153747559 C 0.932201087474823 22.64944458007813 0.9339603781700134 24.71932029724121 1.203155875205994 26.77883911132813 C 2.305176019668579 26.33719062805176 3.48434853553772 26.10731315612793 4.673337459564209 26.10731315612793 C 8.01044750213623 26.10731315612793 11.11911773681641 27.90098190307617 12.78619766235352 30.78836250305176 C 14.0343770980835 32.95034408569336 14.36512756347656 35.47218322753906 13.71752738952637 37.88933181762695 C 13.18668842315674 39.87066650390625 12.05136680603027 41.58418655395508 10.4672384262085 42.82582855224609 C 11.28653049468994 43.44963836669922 12.14929103851318 44.02385330200195 13.04394721984863 44.54029083251953 C 13.96081638336182 45.06965255737305 14.91240692138672 45.53926849365234 15.88582992553711 45.9432373046875 M 16.85571670532227 47.38304138183594 L 16.85473823547363 47.38266372680664 C 15.36889743804932 46.86497116088867 13.91869735717773 46.20003128051758 12.54394721984863 45.40632247924805 C 11.20995712280273 44.63627243041992 9.944577217102051 43.74312210083008 8.782467842102051 42.75170135498047 C 8.808597564697266 42.73689270019531 8.834717750549316 42.72205352783203 8.861087799072266 42.70693206787109 C 12.85229778289795 40.40269088745117 14.22485733032227 35.28033447265625 11.92016792297363 31.28835296630859 C 10.43115711212158 28.70939254760742 7.654297351837158 27.10731315612793 4.673337459564209 27.10731315612793 C 3.214847564697266 27.10731315612793 1.772457480430603 27.49502182006836 0.5021974444389343 28.22854232788086 C 0.477297455072403 28.2430534362793 0.4526374638080597 28.25752258300781 0.4277374744415283 28.27225303649902 C -0.1408725380897522 25.2214527130127 -0.1425725370645523 22.13658332824707 0.4216274619102478 19.10282325744629 C 0.4482474625110626 19.11858177185059 0.4748574495315552 19.13412284851074 0.5017074346542358 19.14962196350098 C 1.772217512130737 19.88294219970703 3.213377475738525 20.27055168151855 4.669437408447266 20.27055168151855 L 4.673587322235107 20.27055168151855 C 7.654537677764893 20.27055168151855 10.43115711212158 18.66858291625977 11.92016792297363 16.08980178833008 C 14.22485733032227 12.0985221862793 12.85229778289795 6.9764723777771 8.861087799072266 4.671912670135498 C 8.833987236022949 4.656272411346436 8.807126998901367 4.641012668609619 8.779787063598633 4.625712394714355 C 11.16332721710205 2.587692499160767 13.88036727905273 1.031792640686035 16.85522651672363 2.598266519271419e-06 C 16.7094783782959 2.389782667160034 17.59570693969727 4.730502605438232 19.28783798217773 6.422722816467285 C 20.86694717407227 8.001592636108398 22.96581840515137 8.871122360229492 25.19823837280273 8.871122360229492 C 27.43041801452637 8.871122360229492 29.52978706359863 8.001592636108398 31.10937690734863 6.422722816467285 C 32.77978897094727 4.752182483673096 33.66821670532227 2.440052509307861 33.54638671875 0.07920259982347488 C 34.95068740844727 0.5843526124954224 36.32104873657227 1.221372604370117 37.62084579467773 1.971832633018494 C 38.955078125 2.742032527923584 40.22070693969727 3.635312557220459 41.38281631469727 4.626872539520264 C 41.35644912719727 4.641762733459473 41.330078125 4.656692504882813 41.30370712280273 4.671912670135498 C 39.36987686157227 5.788352489471436 37.98681640625 7.59086275100708 37.40893936157227 9.747382164001465 C 36.83105850219727 11.90402221679688 37.12768936157227 14.15647220611572 38.243896484375 16.08980178833008 C 39.73290634155273 18.66858291625977 42.50927734375 20.27055168151855 45.4892578125 20.27055168151855 C 46.94946670532227 20.27055168151855 48.39282608032227 19.88294219970703 49.66259765625 19.14962196350098 C 49.68774795532227 19.13511276245117 49.71240615844727 19.12064170837402 49.73730850219727 19.10591316223145 C 50.305908203125 22.15617179870605 50.30737686157227 25.24115180969238 49.74316787719727 28.27569198608398 C 49.71630859375 28.25980186462402 49.689697265625 28.24417304992676 49.66259765625 28.22854232788086 C 48.39208602905273 27.49502182006836 46.94946670532227 27.10731315612793 45.49120712280273 27.10731315612793 C 42.51025772094727 27.10731315612793 39.73315811157227 28.70939254760742 38.243896484375 31.28835296630859 C 35.93945693969727 35.28006362915039 37.312255859375 40.40241241455078 41.30370712280273 42.70693206787109 C 41.33056640625 42.72238159179688 41.35742568969727 42.73763275146484 41.38427734375 42.75274276733398 C 39.067138671875 44.7341423034668 36.43017578125 46.26176071166992 33.54662704467773 47.29438400268555 C 33.66699600219727 44.9352912902832 32.77880859375 42.62511444091797 31.10937690734863 40.9554328918457 C 29.530517578125 39.37667083740234 27.43139839172363 38.5072021484375 25.19872665405273 38.5072021484375 C 22.96581840515137 38.5072021484375 20.86669731140137 39.37667083740234 19.28783798217773 40.9554328918457 C 17.59521675109863 42.64821243286133 16.70873832702637 44.99056243896484 16.85571670532227 47.38190078735352 L 16.85571670532227 47.38304138183594 Z"/></g><g class="c" transform="translate(721.067 2558.514)"><circle class="g" cx="9" cy="9" r="9"/><circle class="i" cx="9" cy="9" r="8.5"/></g></g><g transform="translate(173 20)"><g class="d" transform="translate(801 2314)"><rect class="g" width="39" height="26" rx="3"/><rect class="i" x="0.5" y="0.5" width="38" height="25" rx="2.5"/></g><g transform="translate(122.615 805)"><path class="e" d="M682.437,1516.135l-4.052,4.052,4.052,4.052" transform="translate(9 2)"/><path class="e" d="M678.385,1516.135l4.052,4.052-4.052,4.052" transform="translate(26 2)"/><path class="f" d="M699,1514.018l-4.109,13.45" transform="translate(1 1)"/></g></g></g></g></svg>