<svg xmlns="http://www.w3.org/2000/svg" xmlns:xlink="http://www.w3.org/1999/xlink" width="375" height="383" viewBox="0 0 375 383"><defs><style>.a{fill:#2a1b3d;font-size:18px;font-family:Gordita-Medium, Gordita;font-weight:500;}.b,.d,.e,.i{fill:none;}.b,.c,.d{stroke:#2a1b3d;}.c,.f{fill:#fff;}.d,.e{stroke-linecap:round;}.e,.f{stroke:#d83f87;}.g{fill:url(#c);}.h{stroke:none;}.j{filter:url(#a);}</style><filter id="a" x="0" y="0" width="375" height="383" filterUnits="userSpaceOnUse"><feOffset input="SourceAlpha"/><feGaussianBlur stdDeviation="13.5" result="b"/><feFlood flood-opacity="0.161"/><feComposite operator="in" in2="b"/><feComposite in="SourceGraphic"/></filter><linearGradient id="c" x1="0.753" x2="-0.179" y2="1.66" gradientUnits="objectBoundingBox"><stop offset="0" stop-color="#d83f87"/><stop offset="1" stop-color="#44318d"/></linearGradient></defs><g transform="translate(-64.5 -1531.5)"><text class="a" transform="translate(133 1767)"><tspan x="23.65" y="20">User Interface &amp; User </tspan><tspan x="34.486" y="50">Experience Design</tspan></text><g class="j" transform="matrix(1, 0, 0, 1, 64.5, 1531.5)"><g class="b" transform="translate(40.5 40.5)"><rect class="h" width="294" height="302" rx="5"/><rect class="i" x="0.5" y="0.5" width="293" height="301" rx="4.5"/></g></g><g transform="translate(-470 136)"><g class="c" transform="translate(663 1478)"><rect class="h" width="118" height="109" rx="2"/><rect class="i" x="0.5" y="0.5" width="117" height="108" rx="1.5"/></g><line class="d" x2="117" transform="translate(663.5 1496.5)"/><line class="d" x2="24" transform="translate(729.5 1507.5)"/><line class="e" x2="24" transform="translate(700.5 1557.5)"/><line class="d" x2="24" transform="translate(673 1541.5)"/><line class="d" x2="41" transform="translate(729.5 1512.5)"/><line class="d" x2="41" transform="translate(700.5 1562.5)"/><line class="d" x2="98.5" transform="translate(673 1546.5)"/><line class="d" x2="41" transform="translate(729.5 1517.5)"/><line class="d" x2="41" transform="translate(700.5 1567.5)"/><line class="d" x2="62.5" transform="translate(673 1551.5)"/><g class="f" transform="translate(673 1484)"><circle class="h" cx="3" cy="3" r="3"/><circle class="i" cx="3" cy="3" r="2.5"/></g><g class="f" transform="translate(683 1484)"><circle class="h" cx="3" cy="3" r="3"/><circle class="i" cx="3" cy="3" r="2.5"/></g><g class="f" transform="translate(693 1484)"><circle class="h" cx="3" cy="3" r="3"/><circle class="i" cx="3" cy="3" r="2.5"/></g><g class="f" transform="translate(748 1484)"><rect class="h" width="23" height="6" rx="3"/><rect class="i" x="0.5" y="0.5" width="22" height="5" rx="2.5"/></g><rect class="g" width="49" height="31" rx="3" transform="translate(647 1506)"/><g class="f" transform="translate(701 1506)"><rect class="h" width="23" height="19" rx="3"/><rect class="i" x="0.5" y="0.5" width="22" height="18" rx="2.5"/></g><g class="c" transform="translate(673 1556)"><rect class="h" width="23" height="21" rx="3"/><rect class="i" x="0.5" y="0.5" width="22" height="20" rx="2.5"/></g><g class="c" transform="translate(748 1556)"><rect class="h" width="23" height="21" rx="3"/><rect class="i" x="0.5" y="0.5" width="22" height="20" rx="2.5"/></g></g></g></svg>