<svg xmlns="http://www.w3.org/2000/svg" xmlns:xlink="http://www.w3.org/1999/xlink" width="375" height="383" viewBox="0 0 375 383"><defs><style>.a{fill:#2a1b3d;font-size:18px;font-family:Gordita-Medium, Gordita;font-weight:500;}.b,.d,.f,.h,.j{fill:none;}.b,.c,.d{stroke:#2a1b3d;}.c,.e{fill:#fff;}.d,.f,.h{stroke-linecap:round;}.e,.f{stroke:#d83f87;}.g{fill:url(#c);}.h{stroke:#fff;}.i{stroke:none;}.k{filter:url(#a);}</style><filter id="a" x="0" y="0" width="375" height="383" filterUnits="userSpaceOnUse"><feOffset input="SourceAlpha"/><feGaussianBlur stdDeviation="13.5" result="b"/><feFlood flood-opacity="0.161"/><feComposite operator="in" in2="b"/><feComposite in="SourceGraphic"/></filter><linearGradient id="c" x1="0.5" y1="-1.04" x2="0.5" y2="1" gradientUnits="objectBoundingBox"><stop offset="0" stop-color="#44318d"/><stop offset="1" stop-color="#d83f87"/></linearGradient></defs><g transform="translate(-456.5 -1531.5)"><text class="a" transform="translate(525 1767)"><tspan x="52.054" y="20">Web &amp; Mobile </tspan><tspan x="2.806" y="50">Application Development</tspan></text><g class="k" transform="matrix(1, 0, 0, 1, 456.5, 1531.5)"><g class="b" transform="translate(40.5 40.5)"><rect class="i" width="294" height="302" rx="5"/><rect class="j" x="0.5" y="0.5" width="293" height="301" rx="4.5"/></g></g><g transform="translate(-89 136)"><g class="c" transform="translate(663 1478)"><rect class="i" width="118" height="109" rx="2"/><rect class="j" x="0.5" y="0.5" width="117" height="108" rx="1.5"/></g><line class="d" x2="117" transform="translate(663.5 1496.5)"/><line class="d" x2="24" transform="translate(729.5 1507.5)"/><line class="d" x2="24" transform="translate(673 1541.5)"/><line class="d" x2="41" transform="translate(729.5 1512.5)"/><line class="d" x2="68.5" transform="translate(673 1562.5)"/><line class="d" x2="98.5" transform="translate(673 1546.5)"/><line class="d" x2="41" transform="translate(729.5 1517.5)"/><line class="d" x2="68.5" transform="translate(673 1567.5)"/><line class="d" x2="62.5" transform="translate(673 1551.5)"/><line class="d" x2="20.5" transform="translate(673 1557.5)"/><g class="e" transform="translate(673 1484)"><circle class="i" cx="3" cy="3" r="3"/><circle class="j" cx="3" cy="3" r="2.5"/></g><g class="e" transform="translate(683 1484)"><circle class="i" cx="3" cy="3" r="3"/><circle class="j" cx="3" cy="3" r="2.5"/></g><g class="e" transform="translate(693 1484)"><circle class="i" cx="3" cy="3" r="3"/><circle class="j" cx="3" cy="3" r="2.5"/></g><g class="e" transform="translate(748 1484)"><rect class="i" width="23" height="6" rx="3"/><rect class="j" x="0.5" y="0.5" width="22" height="5" rx="2.5"/></g><g class="c" transform="translate(673 1506)"><rect class="i" width="49" height="31" rx="3"/><rect class="j" x="0.5" y="0.5" width="48" height="30" rx="2.5"/></g><g class="e" transform="translate(672 1573)"><rect class="i" width="54" height="7" rx="3"/><rect class="j" x="0.5" y="0.5" width="53" height="6" rx="2.5"/></g><path class="f" d="M682.437,1516.135l-4.052,4.052,4.052,4.052" transform="translate(9 2)"/><path class="f" d="M678.385,1516.135l4.052,4.052-4.052,4.052" transform="translate(26 2)"/><path class="b" d="M699,1514.018l-4.109,13.45" transform="translate(1 1)"/></g><rect class="g" width="47" height="76" rx="4" transform="translate(667 1593)"/><g transform="translate(-7.437 109)"><path class="h" d="M682.437,1516.135l-4.052,4.052,4.052,4.052" transform="translate(9 2)"/><path class="h" d="M678.385,1516.135l4.052,4.052-4.052,4.052" transform="translate(26 2)"/><path class="d" d="M699,1514.018l-4.109,13.45" transform="translate(1 1)"/></g></g></svg>